<svg aria-hidden="true" style="position: absolute; width: 0; height: 0; overflow: hidden;" version="1.1" xmlns="http://www.w3.org/2000/svg" xmlns:xlink="http://www.w3.org/1999/xlink">
<defs>
<symbol id="icon-Logo-4" viewBox="0 0 57 32">
<path d="M19.417 26.187c0.008 0 0.017 0.002 0.025 0.005s0.015 0.007 0.020 0.013l0.116 0.111c-0.090 0.090-0.202 0.162-0.327 0.211-0.147 0.053-0.305 0.079-0.464 0.076-0.149 0.003-0.298-0.021-0.436-0.071-0.125-0.045-0.237-0.113-0.329-0.2-0.094-0.089-0.166-0.194-0.212-0.308-0.051-0.127-0.076-0.261-0.074-0.396-0.002-0.135 0.025-0.27 0.080-0.397 0.051-0.115 0.127-0.22 0.225-0.308 0.099-0.087 0.218-0.155 0.349-0.201 0.143-0.048 0.296-0.072 0.449-0.071 0.143-0.003 0.285 0.019 0.417 0.064 0.115 0.043 0.221 0.104 0.313 0.178l-0.097 0.119c-0.007 0.008-0.015 0.016-0.025 0.021-0.011 0.007-0.025 0.010-0.039 0.009-0.015-0.001-0.030-0.005-0.042-0.013l-0.052-0.032-0.073-0.040c-0.031-0.015-0.064-0.028-0.097-0.039-0.043-0.013-0.087-0.024-0.132-0.032-0.057-0.009-0.115-0.013-0.173-0.013-0.111-0.001-0.22 0.017-0.323 0.053-0.096 0.034-0.182 0.084-0.253 0.149-0.073 0.069-0.128 0.15-0.164 0.238-0.041 0.101-0.061 0.207-0.060 0.313-0.002 0.108 0.018 0.216 0.060 0.318 0.035 0.087 0.090 0.167 0.161 0.236 0.067 0.064 0.149 0.114 0.241 0.147 0.095 0.034 0.197 0.051 0.3 0.050 0.059 0.001 0.119-0.003 0.177-0.010 0.096-0.010 0.188-0.039 0.269-0.085 0.041-0.023 0.079-0.049 0.115-0.078 0.015-0.012 0.035-0.020 0.055-0.020z"></path>
<path d="M22.776 25.629c0.002 0.134-0.025 0.267-0.079 0.393-0.047 0.114-0.122 0.218-0.219 0.305s-0.214 0.155-0.344 0.2c-0.285 0.094-0.599 0.094-0.884 0-0.129-0.046-0.245-0.114-0.342-0.201-0.097-0.089-0.172-0.194-0.221-0.308-0.105-0.255-0.105-0.533 0-0.787 0.050-0.115 0.125-0.22 0.221-0.31 0.097-0.084 0.214-0.15 0.342-0.193 0.284-0.096 0.6-0.096 0.884 0 0.129 0.046 0.246 0.114 0.343 0.201 0.096 0.088 0.17 0.191 0.22 0.304 0.054 0.127 0.081 0.261 0.079 0.395zM22.47 25.629c0.002-0.107-0.016-0.214-0.055-0.316-0.033-0.087-0.086-0.168-0.156-0.236-0.068-0.065-0.152-0.116-0.246-0.149-0.207-0.069-0.436-0.069-0.643 0-0.094 0.033-0.178 0.084-0.246 0.149-0.071 0.068-0.125 0.149-0.157 0.236-0.074 0.206-0.074 0.426 0 0.632 0.033 0.087 0.086 0.168 0.157 0.236 0.068 0.065 0.152 0.115 0.246 0.148 0.207 0.067 0.436 0.067 0.643 0 0.094-0.033 0.177-0.083 0.246-0.148 0.070-0.069 0.123-0.149 0.156-0.236 0.039-0.102 0.058-0.209 0.055-0.316z"></path>
<path d="M25.067 25.96l0.031 0.071c0.012-0.025 0.022-0.048 0.033-0.071 0.011-0.024 0.024-0.047 0.038-0.070l0.743-1.174c0.015-0.020 0.028-0.033 0.042-0.037 0.020-0.005 0.040-0.007 0.061-0.006h0.22v1.909h-0.26v-1.404c0-0.018 0-0.038 0-0.059-0.001-0.022-0.001-0.044 0-0.066l-0.747 1.19c-0.009 0.018-0.025 0.033-0.044 0.043s-0.041 0.016-0.064 0.016h-0.042c-0.023 0-0.045-0.005-0.064-0.016s-0.034-0.026-0.044-0.044l-0.769-1.198c0 0.023 0 0.046 0 0.068s0 0.043 0 0.061v1.404h-0.252v-1.905h0.22c0.021-0.001 0.041 0.001 0.061 0.006 0.018 0.008 0.032 0.021 0.041 0.037l0.759 1.175c0.015 0.022 0.028 0.045 0.038 0.068z"></path>
<path d="M27.864 25.865v0.715h-0.291v-1.906h0.649c0.122-0.002 0.245 0.012 0.362 0.042 0.094 0.023 0.181 0.064 0.256 0.119 0.065 0.052 0.114 0.116 0.145 0.187 0.034 0.078 0.051 0.161 0.049 0.244 0.001 0.084-0.017 0.167-0.054 0.244-0.035 0.073-0.089 0.138-0.157 0.191-0.075 0.057-0.162 0.1-0.257 0.126-0.113 0.031-0.232 0.046-0.35 0.044l-0.352-0.005zM27.864 25.66h0.352c0.076 0.001 0.153-0.009 0.225-0.029 0.060-0.018 0.116-0.046 0.163-0.082 0.044-0.035 0.078-0.078 0.099-0.126 0.024-0.051 0.036-0.105 0.035-0.16 0.003-0.053-0.007-0.106-0.029-0.155s-0.057-0.094-0.102-0.13c-0.111-0.075-0.251-0.112-0.391-0.102h-0.352v0.786z"></path>
<path d="M31.772 26.583h-0.23c-0.023 0.001-0.046-0.006-0.064-0.018-0.016-0.012-0.029-0.027-0.038-0.044l-0.198-0.461h-0.993l-0.205 0.461c-0.008 0.017-0.020 0.032-0.036 0.043-0.018 0.013-0.042 0.020-0.065 0.019h-0.23l0.872-1.909h0.302l0.884 1.909zM30.333 25.874h0.82l-0.346-0.777c-0.026-0.058-0.048-0.118-0.065-0.179l-0.033 0.1c-0.010 0.030-0.022 0.058-0.032 0.081l-0.343 0.776z"></path>
<path d="M33.029 24.682c0.017 0.008 0.032 0.020 0.044 0.034l1.272 1.439c0-0.023 0-0.046 0-0.067s0-0.043 0-0.063v-1.352h0.26v1.909h-0.145c-0.021 0.001-0.041-0.003-0.060-0.011-0.018-0.009-0.034-0.021-0.047-0.035l-1.271-1.438c0.001 0.022 0.001 0.044 0 0.066 0 0.021 0 0.040 0 0.058v1.361h-0.26v-1.909h0.154c0.018-0 0.036 0.003 0.052 0.009z"></path>
<path d="M36.748 25.823v0.758h-0.291v-0.758l-0.804-1.15h0.26c0.022-0.001 0.045 0.005 0.063 0.016 0.016 0.012 0.029 0.027 0.039 0.043l0.503 0.742c0.020 0.032 0.038 0.061 0.052 0.088s0.026 0.054 0.036 0.081l0.038-0.082c0.014-0.030 0.031-0.059 0.049-0.087l0.496-0.747c0.010-0.015 0.023-0.028 0.038-0.040 0.017-0.013 0.040-0.020 0.063-0.019h0.263l-0.806 1.155z"></path>
<path d="M24.923 21.47c0.127 0.014 0.254 0.025 0.384 0.035 1.962-0.763 3.622-2.011 4.772-3.588s1.74-3.415 1.695-5.282l-2.162-1.879c0.44 1.988 0.234 4.043-0.594 5.935s-2.246 3.547-4.094 4.779z"></path>
<path d="M24.151 21.383l0.058 0.010c1.975-1.228 3.481-2.942 4.323-4.921s0.981-4.133 0.399-6.181l-3.080-2.676c1.246 2.2 1.747 4.661 1.446 7.098s-1.393 4.75-3.147 6.67z"></path>
<path d="M34.596 14.841c-0.523 2.052-1.794 3.902-3.624 5.276-0.534 0.404-1.111 0.763-1.722 1.074 1.49-0.38 2.859-1.053 4.003-1.966s2.030-2.042 2.592-3.3l-1.249-1.084z"></path>
<path d="M34.106 14.539l-1.778-1.545c-0.034 1.762-0.61 3.483-1.669 4.986s-2.562 2.731-4.352 3.559h0.009c0.399-0 0.798-0.021 1.194-0.062 1.673-0.593 3.151-1.537 4.303-2.748s1.94-2.65 2.295-4.189z"></path>
<path d="M24.409 6.486l-2.122-1.846c-1.897 0.637-3.528 1.756-4.68 3.212s-1.772 3.179-1.778 4.946v0c0.007 1.952 0.763 3.846 2.149 5.383s3.322 2.628 5.501 3.101c1.946-2.060 3.085-4.605 3.252-7.266s-0.647-5.299-2.323-7.53z"></path>
<path d="M39.008 14.255c-0.008-2.316-1.070-4.535-2.955-6.173s-4.439-2.561-7.105-2.567c-1.232-0.001-2.453 0.196-3.602 0.582l12.99 11.286c0.445-0.998 0.673-2.058 0.672-3.128z"></path>
</symbol>
<symbol id="icon-Logo-3-1" viewBox="0 0 57 32">
<path d="M28.493 14.618c-0.203-0.262-0.326-0.596-0.326-0.958 0-0.036 0.001-0.071 0.004-0.107l-0 0.005v-1.538c0-0.471 0.107-0.829 0.321-1.075 0.213-0.245 0.581-0.367 1.101-0.366 0.489 0 0.837 0.105 1.042 0.313 0.224 0.266 0.333 0.591 0.308 0.919v0.362h-0.875v-0.366c0.003-0.119-0.005-0.239-0.026-0.358-0.015-0.087-0.060-0.161-0.125-0.212l-0.001-0.001c-0.079-0.053-0.175-0.084-0.279-0.084-0.013 0-0.026 0.001-0.039 0.001l0.002-0c-0.011-0.001-0.025-0.001-0.038-0.001-0.11 0-0.212 0.033-0.297 0.090l0.002-0.001c-0.072 0.058-0.124 0.139-0.145 0.232l-0 0.003c-0.022 0.105-0.035 0.226-0.035 0.351 0 0.010 0 0.021 0 0.031l-0-0.002v1.866c-0.014 0.18 0.025 0.36 0.112 0.524 0.045 0.056 0.104 0.1 0.172 0.126l0.003 0.001c0.051 0.020 0.111 0.032 0.173 0.032 0.019 0 0.037-0.001 0.055-0.003l-0.002 0c0.011 0.001 0.024 0.001 0.037 0.001 0.102 0 0.197-0.032 0.274-0.087l-0.002 0.001c0.068-0.056 0.115-0.135 0.13-0.224l0-0.002c0.020-0.124 0.030-0.249 0.027-0.374v-0.379h0.875v0.346c0.002 0.027 0.003 0.059 0.003 0.091 0 0.332-0.115 0.638-0.308 0.878l0.002-0.003c-0.201 0.228-0.544 0.342-1.047 0.342s-0.884-0.122-1.1-0.375zM32.137 14.634c-0.221-0.24-0.332-0.588-0.332-1.050v-1.618c0-0.457 0.11-0.803 0.332-1.037s0.59-0.351 1.109-0.35c0.515 0 0.882 0.117 1.103 0.35 0.221 0.235 0.333 0.58 0.333 1.037v1.617c0 0.457-0.112 0.807-0.337 1.049s-0.59 0.361-1.1 0.361-0.886-0.122-1.109-0.359zM33.653 14.245c0.079-0.149 0.115-0.314 0.105-0.478v-1.981c0.001-0.016 0.002-0.035 0.002-0.053 0-0.152-0.039-0.296-0.107-0.421l0.002 0.005c-0.046-0.057-0.107-0.101-0.176-0.128l-0.003-0.001c-0.051-0.020-0.11-0.031-0.171-0.031-0.021 0-0.042 0.001-0.062 0.004l0.002-0c-0.018-0.002-0.038-0.004-0.059-0.004-0.062 0-0.121 0.011-0.176 0.032l0.003-0.001c-0.072 0.027-0.133 0.071-0.179 0.128l-0.001 0.001c-0.080 0.147-0.116 0.308-0.105 0.469v1.99c-0.011 0.165 0.025 0.329 0.105 0.479 0.051 0.050 0.114 0.091 0.185 0.118 0.067 0.027 0.144 0.042 0.225 0.042s0.158-0.016 0.229-0.044l-0.004 0.001c0.071-0.028 0.133-0.068 0.185-0.118v-0.010zM35.735 10.626h0.942l0.708 2.984 0.725-2.984h0.916l0.093 4.307h-0.678l-0.073-2.994-0.699 2.994h-0.544l-0.724-3.005-0.067 3.005h-0.685l0.085-4.307zM40.176 10.626h1.468c0.845 0 1.268 0.407 1.268 1.223 0 0.781-0.445 1.171-1.335 1.17h-0.5v1.914h-0.906l0.005-4.308zM41.43 12.467c0.090 0.010 0.18 0.003 0.267-0.021 0.085-0.023 0.165-0.062 0.231-0.115 0.104-0.146 0.15-0.316 0.131-0.486 0.001-0.014 0.001-0.031 0.001-0.047 0-0.122-0.016-0.241-0.047-0.353l0.002 0.009c-0.014-0.046-0.037-0.085-0.067-0.119l0 0c-0.032-0.035-0.070-0.064-0.112-0.085l-0.002-0.001c-0.105-0.045-0.228-0.071-0.357-0.071-0.017 0-0.033 0-0.050 0.001l0.002-0h-0.351v1.287h0.352zM44.219 10.626h0.973l0.998 4.307h-0.845l-0.197-0.993h-0.868l-0.203 0.993h-0.857l0.998-4.307zM45.050 13.442l-0.339-1.808-0.339 1.808h0.677zM46.996 10.626h0.635l1.213 2.457v-2.457h0.752v4.307h-0.603l-1.221-2.565v2.565h-0.777l0.002-4.307zM51.357 13.291l-1.009-2.659h0.85l0.616 1.708 0.578-1.708h0.832l-0.997 2.659v1.642h-0.869v-1.643zM29.892 16.817v0.225h-0.739v1.75h-0.31v-1.75h-0.743v-0.225h1.792zM32.21 18.793h-0.239c-0.002 0-0.004 0-0.007 0-0.023 0-0.044-0.007-0.061-0.019l0 0c-0.017-0.011-0.031-0.026-0.039-0.045l-0-0.001-0.214-0.469h-1.026l-0.213 0.469c-0.007 0.021-0.018 0.039-0.033 0.053l-0 0c-0.017 0.012-0.039 0.019-0.062 0.019-0.002 0-0.004-0-0.006-0h-0.239l0.906-1.975h0.315l0.917 1.968zM30.709 18.059h0.855l-0.363-0.804c-0.023-0.051-0.046-0.112-0.064-0.176l-0.003-0.010c-0.013 0.037-0.023 0.074-0.034 0.105l-0.033 0.083-0.358 0.803zM33.771 18.598c0.057 0.003 0.114 0.003 0.171 0 0.049-0.004 0.097-0.012 0.145-0.023 0.044-0.009 0.088-0.021 0.131-0.036 0.040-0.014 0.080-0.031 0.121-0.049v-0.444h-0.362c-0.001 0-0.002 0-0.003 0-0.017 0-0.033-0.006-0.046-0.016l0 0c-0.006-0.004-0.010-0.010-0.014-0.016l-0-0c-0.003-0.005-0.004-0.011-0.004-0.018 0-0.001 0-0.001 0-0.002v0-0.151h0.703v0.757c-0.11 0.068-0.237 0.123-0.372 0.158l-0.010 0.002c-0.075 0.019-0.15 0.033-0.227 0.041-0.088 0.009-0.176 0.012-0.265 0.012-0.003 0-0.007 0-0.011 0-0.159 0-0.312-0.027-0.455-0.077l0.010 0.003c-0.14-0.049-0.26-0.119-0.364-0.208l0.002 0.001c-0.097-0.086-0.176-0.19-0.231-0.307l-0.002-0.006c-0.053-0.117-0.083-0.253-0.083-0.397 0-0.004 0-0.009 0-0.013v0.001c-0-0.004-0-0.008-0-0.012 0-0.145 0.030-0.283 0.084-0.407l-0.003 0.007c0.052-0.117 0.132-0.224 0.234-0.313 0.103-0.089 0.227-0.158 0.363-0.205 0.155-0.051 0.32-0.076 0.485-0.074 0.084 0 0.169 0.005 0.252 0.017 0.074 0.011 0.146 0.027 0.215 0.050 0.064 0.020 0.124 0.047 0.181 0.078 0.055 0.031 0.108 0.065 0.158 0.103l-0.087 0.122c-0.007 0.011-0.017 0.020-0.029 0.026l-0 0c-0.012 0.007-0.026 0.010-0.042 0.011h-0c-0.021-0-0.040-0.006-0.057-0.016l0.001 0c-0.037-0.017-0.066-0.033-0.094-0.050l0.005 0.003c-0.034-0.019-0.074-0.037-0.115-0.052l-0.006-0.002c-0.046-0.017-0.102-0.032-0.16-0.043l-0.007-0.001c-0.065-0.011-0.141-0.017-0.218-0.017-0.004 0-0.008 0-0.013 0h0.001c-0.003-0-0.007-0-0.011-0-0.121 0-0.238 0.020-0.346 0.057l0.008-0.002c-0.101 0.035-0.192 0.088-0.267 0.156-0.072 0.067-0.129 0.149-0.166 0.241l-0.002 0.005c-0.038 0.098-0.061 0.211-0.061 0.329s0.022 0.232 0.063 0.336l-0.002-0.006c0.039 0.093 0.101 0.178 0.181 0.249 0.074 0.068 0.164 0.121 0.264 0.156 0.115 0.034 0.237 0.047 0.359 0.039zM36.659 18.567h0.989v0.225h-1.291v-1.975h0.309l-0.007 1.75zM38.677 18.793h-0.309v-1.975h0.309v1.975zM39.83 16.827c0.019 0.009 0.034 0.021 0.047 0.036l0 0 1.324 1.489c-0.001-0.011-0.001-0.023-0.001-0.035s0-0.025 0.001-0.037l-0 0.002v-1.472h0.27v1.984h-0.156c-0.003 0-0.007 0-0.010 0-0.021 0-0.040-0.004-0.058-0.012l0.001 0c-0.019-0.010-0.035-0.022-0.048-0.037l-0-0-1.323-1.488v1.536h-0.259v-1.975h0.161c0.018 0 0.035 0.003 0.051 0.009zM43.753 16.817v0.217h-1.098v0.652h0.89v0.21h-0.89v0.674h1.098v0.218h-1.417v-1.971h1.417zM11.286 4.617l13.757 3.372v11.818l-13.757-3.371v-11.82zM10.404 3.609v13.401l15.52 3.806v-13.399l-15.52-3.807z"></path>
<path d="M18.722 27.036l-15.522-3.809v-13.399l15.522 3.807v13.401z"></path>
<path d="M10.661 4.465l13.578 3.33-5.774 4.987-13.579-3.332 5.776-4.986zM10.404 3.609l-7.204 6.219 15.522 3.808 7.202-6.22-15.52-3.807zM19.595 26.282l6.329-5.466-6.33-1.552v7.019z"></path>
</symbol>
<symbol id="icon-logo2" viewBox="0 0 57 32">
<path d="M14.27 23.859c0.13 0.147 0.199 0.332 0.196 0.521 0.001 0.012 0.001 0.026 0.001 0.039 0 0.117-0.026 0.227-0.073 0.326l0.002-0.005c-0.056 0.119-0.135 0.218-0.232 0.296l-0.002 0.001c-0.221 0.152-0.494 0.243-0.789 0.243-0.032 0-0.064-0.001-0.096-0.003l0.004 0h-1.549v-3.301h1.517c0.027-0.002 0.058-0.003 0.090-0.003 0.279 0 0.539 0.083 0.756 0.225l-0.005-0.003c0.098 0.076 0.176 0.171 0.227 0.277 0.051 0.108 0.074 0.224 0.068 0.341 0.009 0.181-0.053 0.361-0.176 0.505-0.118 0.131-0.281 0.222-0.462 0.258 0.205 0.034 0.391 0.134 0.523 0.283zM12.454 23.361h0.649c0.147 0.010 0.293-0.029 0.412-0.11 0.047-0.039 0.085-0.088 0.109-0.144l0.001-0.003c0.019-0.043 0.030-0.092 0.030-0.145 0-0.011-0.001-0.022-0.001-0.033l0 0.001c0.001-0.008 0.001-0.018 0.001-0.028 0-0.053-0.011-0.104-0.031-0.15l0.001 0.002c-0.025-0.058-0.062-0.108-0.108-0.147l-0.001-0c-0.105-0.071-0.234-0.113-0.373-0.113-0.018 0-0.036 0.001-0.054 0.002l0.002-0h-0.638v0.867zM13.578 24.627c0.051-0.040 0.091-0.091 0.118-0.149l0.001-0.003c0.022-0.046 0.034-0.101 0.034-0.158 0-0.009-0-0.018-0.001-0.027l0 0.001c0-0.007 0.001-0.016 0.001-0.024 0-0.059-0.013-0.115-0.037-0.165l0.001 0.002c-0.029-0.061-0.070-0.112-0.121-0.151l-0.001-0.001c-0.112-0.076-0.249-0.121-0.397-0.121-0.015 0-0.030 0-0.045 0.001l0.002-0h-0.68v0.908h0.689c0.155 0.008 0.308-0.032 0.435-0.115zM17.371 25.278l-0.843-1.291h-0.317v1.291h-0.726v-3.302h1.374c0.029-0.002 0.064-0.003 0.098-0.003 0.323 0 0.622 0.107 0.862 0.287l-0.004-0.003c0.192 0.179 0.308 0.415 0.327 0.666 0.002 0.021 0.002 0.045 0.002 0.069 0 0.241-0.086 0.461-0.228 0.633l0.001-0.002c-0.171 0.175-0.396 0.296-0.649 0.335l-0.006 0.001 0.899 1.319h-0.789zM16.21 23.538h0.594c0.412 0 0.619-0.166 0.619-0.5 0-0.008 0.001-0.017 0.001-0.027 0-0.063-0.013-0.122-0.035-0.176l0.001 0.003c-0.028-0.067-0.068-0.124-0.118-0.171l-0-0c-0.113-0.085-0.255-0.136-0.41-0.136-0.020 0-0.040 0.001-0.060 0.003l0.003-0h-0.601l0.007 1.005zM21.339 24.613h-1.446l-0.255 0.665h-0.761l1.328-3.265h0.823l1.323 3.265h-0.761l-0.25-0.665zM21.145 24.114l-0.529-1.394-0.529 1.394h1.057zM26.305 25.278h-0.72l-1.616-2.245v2.245h-0.719v-3.302h0.719l1.616 2.259v-2.259h0.72v3.302zM30.418 24.488c-0.149 0.249-0.376 0.452-0.652 0.582-0.28 0.132-0.608 0.209-0.955 0.209-0.021 0-0.041-0-0.062-0.001l0.003 0h-1.282v-3.302h1.283c0.018-0 0.039-0.001 0.060-0.001 0.345 0 0.673 0.075 0.968 0.209l-0.015-0.006c0.276 0.128 0.503 0.329 0.652 0.576 0.148 0.269 0.226 0.565 0.226 0.867s-0.077 0.597-0.226 0.866zM29.593 24.409c0.196-0.205 0.317-0.482 0.318-0.788v-0c0-0.289-0.113-0.569-0.318-0.788-0.223-0.177-0.509-0.284-0.82-0.284-0.029 0-0.058 0.001-0.086 0.003l0.004-0h-0.5v2.138h0.5c0.025 0.002 0.054 0.003 0.083 0.003 0.311 0 0.596-0.107 0.822-0.285l-0.003 0.002zM21.79 3.609s9.3 3.215 9.103 7.867v7.869s-9.294-3.216-9.1-7.869l-0.003-7.867zM39.179 17.503c1.757-1.107 3.788-1.792 5.909-1.994v-2.464c-2.444 0.863-4.517 2.427-5.909 4.458z"></path>
<path d="M38.124 18.245c1.437-2.651 3.93-4.696 6.964-5.716v-7.098s-13.245 4.58-12.965 11.205v11.203s0.59-0.205 1.519-0.589c0-0.358 0-0.719 0.043-1.083 0.274-3.075 1.87-5.925 4.439-7.924z"></path>
<path d="M36.864 22.407c0.069-0.777 0.225-1.546 0.463-2.294-1.599 1.725-2.568 3.867-2.769 6.122-0.020 0.213-0.030 0.426-0.036 0.645 1.105-0.483 1.942-0.895 2.761-1.334l-0.214 0.105c-0.235-1.067-0.304-2.159-0.206-3.244zM37.391 22.447c-0.026 0.273-0.041 0.589-0.041 0.909 0 0.718 0.074 1.419 0.216 2.094l-0.012-0.066c3.619-1.983 7.685-5.046 7.528-8.748v-0.323c-2.586 0.265-5.004 1.3-6.885 2.946-0.415 0.932-0.702 2.014-0.804 3.148l-0.003 0.040z"></path>
</symbol>
<symbol id="icon-logo1" viewBox="0 0 57 32">
<path d="M12.878 11.255h-0.002c-1.279 0-2.316 0.921-2.316 2.058v0.002c0 1.137 1.037 2.058 2.316 2.058h0.002c1.279 0 2.316-0.922 2.316-2.058v-0.001c0-1.137-1.037-2.059-2.316-2.059zM29.971 10.597c-0.004-1.579-0.711-3.092-1.967-4.209s-2.958-1.745-4.734-1.749c-1.777 0.003-3.481 0.631-4.737 1.748s-1.964 2.63-1.968 4.209v8.706s13.405-1.327 13.406-8.704v-0.002zM5.867 22.16c0.003 1.099 0.496 2.151 1.37 2.928s2.058 1.214 3.294 1.218c1.236-0.003 2.42-0.441 3.294-1.218s1.366-1.829 1.37-2.927v-6.058s-9.327 0.924-9.327 6.057zM10.53 23.245c-0.242 0-0.477-0.063-0.678-0.183-0.195-0.115-0.35-0.281-0.447-0.48l-0.003-0.007c-0.059-0.121-0.093-0.264-0.093-0.415 0-0.075 0.009-0.148 0.025-0.219l-0.001 0.007c0.047-0.211 0.163-0.404 0.334-0.556s0.388-0.255 0.625-0.297c0.072-0.013 0.154-0.021 0.239-0.021 0.168 0 0.328 0.030 0.476 0.085l-0.009-0.003c0.223 0.082 0.414 0.221 0.548 0.4s0.206 0.388 0.206 0.603c0.001 0.143-0.030 0.285-0.092 0.417-0.066 0.139-0.155 0.256-0.263 0.352l-0.001 0.001c-0.113 0.101-0.248 0.181-0.397 0.236-0.139 0.053-0.3 0.083-0.467 0.083-0 0-0.001 0-0.001 0h0v-0.004zM19.956 22.647h-0.9v0.93h-0.469v-2.276h1.482v0.38h-1.013v0.588h0.9v0.378zM22.209 22.491c0 0.224-0.039 0.42-0.118 0.589s-0.193 0.299-0.341 0.391c-0.139 0.086-0.308 0.138-0.489 0.138-0.006 0-0.012-0-0.018-0h0.001c-0.189 0-0.357-0.045-0.505-0.136-0.149-0.094-0.267-0.226-0.341-0.382l-0.002-0.006c-0.078-0.165-0.123-0.358-0.123-0.561 0-0.007 0-0.014 0-0.021v0.001-0.112c0-0.224 0.040-0.421 0.12-0.591 0.081-0.171 0.195-0.302 0.342-0.392 0.148-0.092 0.316-0.138 0.506-0.138s0.357 0.046 0.505 0.138c0.148 0.091 0.262 0.221 0.342 0.392 0.081 0.17 0.122 0.366 0.122 0.589v0.101zM21.734 22.388c0-0.238-0.043-0.42-0.128-0.544-0.076-0.113-0.203-0.186-0.348-0.186-0.006 0-0.013 0-0.019 0l0.001-0c-0.005-0-0.012-0-0.018-0-0.144 0-0.271 0.073-0.346 0.183l-0.001 0.001c-0.085 0.122-0.129 0.301-0.13 0.538v0.111c0 0.232 0.043 0.412 0.128 0.54s0.208 0.192 0.369 0.192c0.006 0 0.012 0 0.018 0 0.143 0 0.269-0.073 0.343-0.183l0.001-0.001c0.084-0.124 0.127-0.304 0.128-0.541v-0.111zM23.729 22.98c0-0.004 0-0.009 0-0.013 0-0.077-0.037-0.145-0.093-0.189l-0.001-0c-0.062-0.048-0.175-0.098-0.338-0.15-0.15-0.047-0.278-0.1-0.399-0.163l0.014 0.006c-0.259-0.14-0.388-0.328-0.388-0.564 0-0.123 0.034-0.233 0.103-0.328 0.070-0.097 0.17-0.172 0.299-0.227 0.13-0.054 0.276-0.081 0.437-0.081 0.163 0 0.307 0.029 0.435 0.089 0.127 0.059 0.226 0.141 0.295 0.249 0.071 0.107 0.107 0.229 0.107 0.365h-0.469c0-0.104-0.032-0.185-0.098-0.242-0.066-0.059-0.158-0.087-0.276-0.087-0.115 0-0.204 0.025-0.267 0.074-0.058 0.042-0.096 0.109-0.096 0.185 0 0.002 0 0.004 0 0.006v-0c0 0.074 0.037 0.136 0.111 0.186 0.075 0.050 0.185 0.097 0.33 0.14 0.267 0.080 0.461 0.18 0.583 0.299s0.183 0.267 0.183 0.444c0 0.197-0.075 0.352-0.224 0.464s-0.349 0.167-0.601 0.167c-0.175 0-0.334-0.032-0.478-0.096-0.135-0.057-0.247-0.148-0.328-0.261l-0.002-0.002c-0.070-0.105-0.112-0.234-0.112-0.373 0-0.005 0-0.010 0-0.015v0.001h0.47c0 0.251 0.15 0.377 0.45 0.377 0.111 0 0.198-0.022 0.261-0.067 0.057-0.041 0.093-0.107 0.093-0.182 0-0.003-0-0.006-0-0.009v0zM26.231 21.682h-0.697v1.895h-0.469v-1.895h-0.686v-0.38h1.853v0.38zM27.868 22.591h-0.9v0.61h1.056v0.377h-1.525v-2.276h1.522v0.38h-1.053v0.542h0.9v0.367zM29.142 22.744h-0.373v0.833h-0.469v-2.276h0.845c0.269 0 0.476 0.060 0.622 0.18s0.219 0.289 0.219 0.508c0 0.155-0.034 0.285-0.101 0.389-0.075 0.109-0.179 0.194-0.3 0.245l-0.005 0.002 0.492 0.93v0.021h-0.503l-0.427-0.832zM28.769 22.364h0.379c0.117 0 0.208-0.029 0.273-0.089 0.060-0.059 0.097-0.141 0.097-0.231 0-0.006-0-0.012-0-0.018l0 0.001c0-0.108-0.030-0.192-0.092-0.253s-0.154-0.092-0.28-0.092h-0.377v0.683zM31.609 22.775v0.802h-0.469v-2.276h0.887c0.171 0 0.321 0.031 0.45 0.094 0.13 0.062 0.23 0.151 0.3 0.267 0.069 0.115 0.105 0.245 0.105 0.392 0 0.223-0.077 0.399-0.229 0.528-0.153 0.128-0.363 0.193-0.633 0.193h-0.411zM31.609 22.396h0.419c0.124 0 0.219-0.029 0.283-0.087 0.066-0.059 0.099-0.142 0.099-0.25 0-0.005 0-0.011 0-0.017 0-0.098-0.037-0.187-0.099-0.254l0 0c-0.066-0.068-0.156-0.104-0.272-0.106h-0.43v0.715zM34.574 22.591h-0.9v0.61h1.056v0.377h-1.525v-2.276h1.522v0.38h-1.053v0.542h0.9v0.367zM36.75 21.682h-0.697v1.895h-0.469v-1.895h-0.687v-0.38h1.853v0.38zM38.387 22.591h-0.899v0.61h1.056v0.377h-1.525v-2.276h1.522v0.38h-1.053v0.542h0.9v0.367zM39.661 22.744h-0.373v0.833h-0.469v-2.276h0.846c0.269 0 0.476 0.060 0.622 0.18s0.219 0.289 0.219 0.508c0 0.155-0.034 0.285-0.101 0.389-0.075 0.109-0.179 0.194-0.301 0.245l-0.005 0.002 0.492 0.93v0.021h-0.503l-0.427-0.832zM39.287 22.364h0.378c0.117 0 0.209-0.029 0.273-0.089 0.060-0.059 0.097-0.141 0.097-0.232 0-0.006-0-0.012-0-0.018l0 0.001c0-0.108-0.030-0.192-0.092-0.253-0.060-0.061-0.154-0.092-0.279-0.092h-0.377v0.683zM42.042 22.98c0-0.004 0-0.009 0-0.013 0-0.077-0.037-0.146-0.094-0.189l-0.001-0c-0.062-0.048-0.175-0.098-0.338-0.15-0.15-0.047-0.278-0.1-0.399-0.163l0.014 0.006c-0.259-0.14-0.388-0.328-0.388-0.564 0-0.123 0.035-0.233 0.103-0.328 0.070-0.097 0.17-0.172 0.299-0.227 0.13-0.054 0.276-0.081 0.437-0.081 0.163 0 0.307 0.029 0.435 0.089 0.127 0.059 0.226 0.141 0.295 0.249 0.071 0.107 0.107 0.229 0.107 0.365h-0.469c0-0.104-0.032-0.185-0.098-0.242-0.066-0.059-0.158-0.087-0.276-0.087-0.115 0-0.204 0.025-0.267 0.074-0.058 0.042-0.096 0.109-0.096 0.186 0 0.002 0 0.003 0 0.005v-0c0 0.074 0.037 0.136 0.111 0.186s0.185 0.097 0.33 0.14c0.267 0.080 0.461 0.18 0.583 0.299s0.183 0.267 0.183 0.444c0 0.197-0.075 0.352-0.224 0.464s-0.349 0.167-0.601 0.167c-0.175 0-0.334-0.032-0.478-0.096-0.135-0.057-0.247-0.148-0.328-0.261l-0.002-0.002c-0.070-0.105-0.112-0.234-0.112-0.373 0-0.005 0-0.010 0-0.015v0.001h0.47c0 0.251 0.15 0.377 0.45 0.377 0.111 0 0.198-0.022 0.261-0.067 0.057-0.041 0.094-0.107 0.094-0.182 0-0.003-0-0.006-0-0.009v0z"></path>
</symbol>
<symbol id="icon-group" viewBox="0 0 25 32">
<path d="M10.532 1.806h-0.084c-0.129-0.008-0.258-0.011-0.388-0.014h-0.28c-0.244 0-0.494 0.006-0.741 0.018-0.008-0.001-0.018-0.001-0.028-0.001s-0.020 0-0.029 0.001l0.001-0c-2.376 0.138-4.582 0.733-6.576 1.696l0.104-0.045-0.266 0.128v13.626l0.623-0.212c0.546-0.188 1.129-0.357 1.731-0.513 1.488-0.398 3.202-0.638 4.967-0.661l0.014-0v1.79c-0.223 0.001-0.439 0.007-0.655 0.018h-0.052c-1.399 0.079-2.709 0.289-3.971 0.619l0.139-0.031c-1.734 0.441-3.254 1.050-4.666 1.83l0.1-0.051v-17.475c1.379-0.82 2.975-1.488 4.665-1.921l0.127-0.028c1.353-0.364 2.907-0.576 4.51-0.582h0.267c0.314 0.008 0.622 0.022 0.91 0.044 0.829 0.060 1.597 0.187 2.339 0.378l-0.090-0.020v1.762c-0.628-0.154-1.373-0.271-2.134-0.326l-0.045-0.003-0.044-0.004c-0.152-0.013-0.304-0.026-0.446-0.026zM13.633 3.607c0.391 0.030 0.796 0.044 1.205 0.044 1.689-0.007 3.324-0.228 4.881-0.639l-0.135 0.030c1.734-0.442 3.252-1.052 4.665-1.831l-0.101 0.051v17.163c-1.379 0.819-2.975 1.487-4.664 1.921l-0.127 0.028c-1.353 0.363-2.908 0.574-4.511 0.581h-0.004c-0.033 0-0.072 0-0.111 0-1.177 0-2.319-0.147-3.409-0.425l0.095 0.021v-17.275c0.265 0.062 0.537 0.118 0.814 0.164 0.455 0.077 0.934 0.133 1.401 0.167zM22.367 3.74l-0.623 0.209c-0.572 0.193-1.151 0.365-1.731 0.518-1.551 0.415-3.332 0.657-5.169 0.663h-0.004c-0.406 0-0.78-0.011-1.141-0.034l-0.497-0.033v14.017l0.426 0.037c0.395 0.035 0.803 0.052 1.214 0.052 1.45-0.006 2.853-0.198 4.189-0.553l-0.116 0.026c1.221-0.31 2.281-0.702 3.285-1.189l-0.102 0.044 0.266-0.128v-13.63z"></path>
<path d="M1.684 25.977c-0.167-0.173-0.401-0.281-0.661-0.281-0.011 0-0.023 0-0.034 0.001l0.002-0c-0.004-0-0.009-0-0.014-0-0.139 0-0.272 0.028-0.393 0.078l0.007-0.003c-0.237 0.095-0.42 0.28-0.51 0.512l-0.002 0.006c-0.049 0.123-0.073 0.254-0.071 0.386v2.335c-0.006 0.164 0.026 0.328 0.092 0.479 0.055 0.12 0.135 0.226 0.234 0.313 0.093 0.078 0.202 0.135 0.32 0.166 0.114 0.031 0.231 0.048 0.349 0.048 0.13 0.001 0.258-0.026 0.377-0.081 0.351-0.156 0.591-0.5 0.591-0.901v-0.261h-0.611v0.208c0 0.004 0 0.009 0 0.014 0 0.070-0.013 0.136-0.037 0.198l0.001-0.004c-0.021 0.052-0.051 0.095-0.089 0.132l-0 0c-0.070 0.054-0.159 0.088-0.255 0.089h-0c-0.011 0.001-0.023 0.002-0.036 0.002-0.103 0-0.194-0.050-0.25-0.127l-0.001-0.001c-0.051-0.082-0.082-0.182-0.082-0.289 0-0.008 0-0.016 0.001-0.024l-0 0.001v-2.177c-0.004-0.121 0.022-0.24 0.075-0.349 0.056-0.087 0.153-0.143 0.262-0.143 0.013 0 0.025 0.001 0.038 0.002l-0.001-0c0.003-0 0.007-0 0.012-0 0.107 0 0.201 0.052 0.26 0.131l0.001 0.001c0.063 0.082 0.101 0.187 0.101 0.3 0 0.005-0 0.009-0 0.014v-0.001 0.202h0.604v-0.238c0-0.003 0-0.007 0-0.011 0-0.143-0.027-0.28-0.077-0.405l0.003 0.007c-0.048-0.128-0.117-0.237-0.205-0.329l0 0zM5.31 25.951c-0.186-0.158-0.429-0.255-0.694-0.257h-0c-0.124 0-0.248 0.023-0.364 0.066-0.252 0.090-0.451 0.276-0.557 0.511l-0.002 0.006c-0.062 0.142-0.092 0.297-0.089 0.452v2.239c-0.004 0.158 0.026 0.314 0.089 0.458 0.055 0.121 0.135 0.228 0.236 0.313 0.094 0.086 0.203 0.154 0.322 0.197 0.117 0.043 0.24 0.065 0.364 0.066 0.267-0.001 0.51-0.1 0.695-0.264l-0.001 0.001c0.097-0.087 0.176-0.194 0.23-0.313 0.063-0.144 0.093-0.301 0.089-0.458v-2.239c0-0.006 0-0.013 0-0.020 0-0.156-0.033-0.305-0.092-0.439l0.003 0.007c-0.057-0.128-0.135-0.237-0.23-0.327l-0-0zM5.025 28.969c0.001 0.010 0.002 0.023 0.002 0.035 0 0.114-0.047 0.216-0.123 0.289l-0 0c-0.077 0.065-0.178 0.105-0.287 0.105s-0.21-0.040-0.288-0.105l0.001 0.001c-0.076-0.073-0.123-0.175-0.123-0.289 0-0.012 0.001-0.025 0.002-0.037l-0 0.002v-2.239c-0.001-0.010-0.001-0.022-0.001-0.034 0-0.113 0.047-0.216 0.123-0.289l0-0c0.077-0.065 0.178-0.105 0.287-0.105s0.21 0.040 0.288 0.105l-0.001-0.001c0.076 0.073 0.123 0.175 0.123 0.289 0 0.012-0.001 0.025-0.002 0.037l0-0.002v2.24zM10.072 29.969v-4.24h-0.586l-0.771 2.244h-0.010l-0.777-2.244h-0.58v4.239h0.606v-2.578h0.011l0.593 1.823h0.302l0.598-1.823h0.010v2.578h0.606zM13.513 26.027c-0.093-0.105-0.211-0.185-0.342-0.232-0.124-0.042-0.267-0.066-0.416-0.066-0.008 0-0.016 0-0.024 0l0.001-0h-0.9v4.24h0.604v-1.656h0.311c0.189 0.009 0.376-0.031 0.545-0.116 0.139-0.078 0.251-0.188 0.329-0.32l0.002-0.004c0.070-0.113 0.117-0.238 0.138-0.369 0.021-0.133 0.033-0.287 0.033-0.444 0-0.013-0-0.027-0-0.040l0 0.002c0.006-0.203-0.014-0.407-0.059-0.606-0.043-0.153-0.12-0.284-0.223-0.39l0 0zM13.201 27.319c-0.003 0.081-0.023 0.157-0.057 0.224l0.001-0.003c-0.035 0.065-0.089 0.116-0.154 0.147l-0.002 0.001c-0.075 0.034-0.162 0.054-0.254 0.054-0.011 0-0.022-0-0.033-0.001l0.002 0h-0.276v-1.441h0.311c0.009-0 0.019-0.001 0.029-0.001 0.088 0 0.172 0.020 0.247 0.055l-0.004-0.002c0.062 0.036 0.111 0.090 0.141 0.154l0.001 0.002c0.033 0.074 0.051 0.155 0.053 0.236v0.282c0 0.098 0.006 0.201 0 0.291h-0.006zM16.374 25.729h-0.495l-0.934 4.24h0.604l0.177-0.911h0.823l0.178 0.911h0.604l-0.958-4.24zM15.817 28.481l0.297-1.537h0.011l0.295 1.537h-0.604zM20.277 28.283h-0.011l-0.912-2.554h-0.581v4.24h0.604v-2.55h0.012l0.923 2.549h0.568v-4.239h-0.604v2.554zM23.968 25.729l-0.486 1.686h-0.012l-0.486-1.686h-0.639l0.83 2.448v1.791h0.604v-1.791l0.83-2.447h-0.64zM0 31.166h0.291v0.817h0.198v-0.817h0.289v-0.167h-0.778v0.168zM2.447 30.998l-0.382 0.985h0.21l0.081-0.224h0.392l0.084 0.224h0.215l-0.391-0.985h-0.21zM2.417 31.593l0.134-0.365 0.134 0.365h-0.268zM4.866 31.62h0.228v0.127c-0.063 0.051-0.145 0.082-0.234 0.083h-0c-0.004 0-0.009 0-0.014 0-0.079 0-0.149-0.037-0.195-0.094l-0-0c-0.046-0.065-0.073-0.147-0.073-0.234 0-0.008 0-0.016 0.001-0.023l-0 0.001c0-0.219 0.095-0.329 0.283-0.329 0.006-0.001 0.014-0.001 0.021-0.001 0.097 0 0.178 0.067 0.201 0.157l0 0.001 0.194-0.038c-0.042-0.192-0.18-0.289-0.417-0.289-0.004-0-0.008-0-0.013-0-0.127 0-0.244 0.048-0.331 0.127l0-0c-0.088 0.087-0.143 0.208-0.143 0.342 0 0.013 0 0.026 0.002 0.038l-0-0.002c-0 0.007-0 0.015-0 0.023 0 0.132 0.048 0.254 0.127 0.347l-0.001-0.001c0.087 0.090 0.209 0.146 0.343 0.146 0.011 0 0.021-0 0.032-0.001l-0.001 0c0.005 0 0.010 0 0.016 0 0.155 0 0.296-0.060 0.402-0.157l-0 0v-0.388h-0.426v0.166zM7.337 30.998h-0.199v0.985h0.689v-0.167h-0.49v-0.817zM9.426 30.998h-0.199v0.985h0.199v-0.985zM11.469 31.655l-0.404-0.657h-0.193v0.985h0.185v-0.643l0.396 0.643h0.198v-0.985h-0.182v0.658zM13.315 31.549h0.49v-0.167h-0.49v-0.215h0.527v-0.168h-0.727v0.985h0.747v-0.167h-0.548v-0.266zM17.792 31.386h-0.388v-0.388h-0.197v0.984h0.197v-0.431h0.388v0.431h0.198v-0.985h-0.198v0.388zM19.649 31.549h0.492v-0.167h-0.492v-0.215h0.529v-0.168h-0.726v0.985h0.746v-0.167h-0.548v-0.266zM22.168 31.55c0.171-0.027 0.258-0.118 0.258-0.274 0.001-0.008 0.002-0.018 0.002-0.028 0-0.079-0.038-0.148-0.098-0.191l-0.001-0c-0.073-0.037-0.159-0.059-0.25-0.059-0.014 0-0.027 0-0.040 0.001l0.002-0h-0.417v0.984h0.198v-0.412h0.039c0.005-0 0.010-0 0.016-0 0.039 0 0.076 0.008 0.109 0.023l-0.002-0.001c0.029 0.018 0.053 0.042 0.070 0.072l0.215 0.313h0.236l-0.12-0.192c-0.054-0.096-0.128-0.175-0.215-0.235l-0.002-0.002zM21.969 31.413h-0.146v-0.247h0.156c0.012-0.001 0.027-0.002 0.042-0.002 0.057 0 0.111 0.009 0.163 0.026l-0.004-0.001c0.026 0.024 0.043 0.058 0.043 0.096 0 0.042-0.020 0.080-0.052 0.104l-0 0c-0.049 0.016-0.106 0.025-0.164 0.025-0.013 0-0.026-0-0.039-0.001l0.002 0zM24.068 31.549h0.49v-0.167h-0.49v-0.215h0.529v-0.168h-0.729v0.985h0.747v-0.167h-0.548v-0.266z"></path>
</symbol>
<symbol id="icon-group2" viewBox="0 0 28 32">
<path d="M4.085 0l4.771 4.517-8.857-0.005v21.915h23.149v-8.379l4.766 4.512v-22.559h-23.83zM22.939 17.517l-13.528-12.807h13.528v12.807zM18.739 23.22h-15.076v-14.738h1.066v13.74h14.011v0.997zM7.224 29.345l-0.557 1.147-0.557-1.147h-0.467l0.813 1.529v0.891h0.422v-0.891l0.811-1.529h-0.465zM7.924 31.765l0.196-0.564h0.938l0.197 0.564h0.439l-0.916-2.42h-0.378l-0.914 2.42h0.437zM8.588 29.859l0.351 1.004h-0.701l0.351-1.004zM10.806 30.804c-0.057 0.085-0.091 0.19-0.091 0.303 0 0.001 0 0.003 0 0.004v-0c0 0.204 0.072 0.37 0.214 0.497s0.336 0.19 0.575 0.19c0.239 0 0.445-0.065 0.618-0.195l0.136 0.161h0.468l-0.355-0.421c0.14-0.191 0.209-0.435 0.209-0.733h-0.351c0 0.163-0.034 0.311-0.101 0.444l-0.468-0.552 0.165-0.12c0.1-0.068 0.184-0.152 0.249-0.249l0.002-0.003c0.048-0.079 0.076-0.174 0.076-0.275 0-0.001 0-0.003-0-0.004v0c0-0.003 0-0.006 0-0.009 0-0.149-0.065-0.283-0.169-0.374l-0.001-0c-0.108-0.097-0.251-0.157-0.408-0.157-0.008 0-0.017 0-0.025 0l0.001-0c-0.195 0-0.35 0.056-0.465 0.166s-0.173 0.259-0.173 0.449c0 0.078 0.018 0.157 0.054 0.241 0.038 0.083 0.104 0.184 0.197 0.302-0.179 0.129-0.3 0.24-0.36 0.334zM11.898 31.34c-0.104 0.084-0.237 0.135-0.382 0.136h-0c-0.006 0-0.013 0-0.020 0-0.104 0-0.199-0.040-0.27-0.106l0 0c-0.067-0.066-0.108-0.157-0.108-0.259 0-0.005 0-0.009 0-0.014l-0 0.001c0-0.129 0.067-0.245 0.2-0.346l0.052-0.037 0.528 0.624zM11.464 30.267c-0.114-0.141-0.172-0.257-0.172-0.351 0-0.081 0.024-0.148 0.070-0.201 0.044-0.049 0.107-0.081 0.178-0.081 0.004 0 0.007 0 0.010 0l-0.001-0c0.003-0 0.006-0 0.009-0 0.067 0 0.127 0.026 0.173 0.068l-0-0c0.048 0.045 0.072 0.099 0.072 0.161 0 0.003 0 0.006 0 0.009 0 0.090-0.040 0.171-0.103 0.226l-0 0-0.052 0.041-0.184 0.127zM15.404 31.582c0.166-0.145 0.261-0.347 0.286-0.605h-0.419c-0.022 0.173-0.075 0.296-0.158 0.37s-0.208 0.112-0.372 0.112c-0.18 0-0.318-0.069-0.412-0.206s-0.14-0.337-0.14-0.599v-0.214c0.003-0.259 0.052-0.453 0.15-0.587 0.099-0.134 0.24-0.201 0.422-0.201 0.157 0 0.276 0.039 0.357 0.116s0.133 0.202 0.153 0.376h0.419c-0.027-0.265-0.121-0.47-0.285-0.615s-0.378-0.218-0.645-0.218c-0.198 0-0.373 0.048-0.525 0.142-0.152 0.097-0.271 0.234-0.345 0.396l-0.002 0.006c-0.077 0.169-0.122 0.367-0.122 0.576 0 0.010 0 0.020 0 0.030l-0-0.001v0.226c0.003 0.223 0.045 0.418 0.125 0.587s0.193 0.298 0.339 0.39c0.148 0.091 0.318 0.136 0.511 0.136 0.276 0 0.497-0.072 0.663-0.216zM17.875 31.243c0.082-0.18 0.123-0.388 0.123-0.625v-0.134c0-0.007 0-0.016 0-0.024 0-0.216-0.047-0.421-0.131-0.605l0.004 0.009c-0.077-0.171-0.199-0.31-0.35-0.406l-0.004-0.002c-0.152-0.095-0.326-0.143-0.524-0.143s-0.372 0.048-0.525 0.144c-0.152 0.095-0.27 0.233-0.354 0.414-0.079 0.175-0.125 0.38-0.125 0.595 0 0.011 0 0.021 0 0.032l-0-0.002v0.136c0.001 0.232 0.043 0.436 0.126 0.613 0.084 0.178 0.203 0.315 0.356 0.411 0.154 0.095 0.329 0.143 0.525 0.143 0.199 0 0.374-0.048 0.526-0.143 0.152-0.097 0.27-0.234 0.352-0.413zM17.425 29.874c0.102 0.143 0.152 0.349 0.152 0.618v0.126c0 0.272-0.050 0.48-0.151 0.622-0.099 0.142-0.242 0.213-0.429 0.213-0.005 0-0.011 0-0.017 0-0.171 0-0.323-0.086-0.413-0.216l-0.001-0.002c-0.104-0.145-0.155-0.351-0.155-0.617v-0.14c0.002-0.26 0.054-0.462 0.156-0.603 0.091-0.13 0.24-0.215 0.409-0.215 0.006 0 0.012 0 0.018 0l-0.001-0c0.187 0 0.33 0.072 0.431 0.214z"></path>
</symbol>
<symbol id="icon-linkedin" viewBox="0 0 32 32">
<path d="M31.992 32h0.008v-11.738c0-5.741-1.237-10.163-7.947-10.163-3.227 0-5.392 1.77-6.277 3.45h-0.093v-2.914h-6.365v21.363h6.627v-10.578c0-2.786 0.528-5.48 3.978-5.48 3.398 0 3.448 3.179 3.448 5.658v10.402h6.621zM0.528 10.635h6.635v21.365h-6.635v-21.365zM3.843 0c-2.123 0-3.843 1.721-3.843 3.843v0c0 2.12 1.722 3.878 3.843 3.878 2.12 0 3.842-1.757 3.842-3.878s-1.72-3.841-3.841-3.843h-0z"></path>
</symbol>
<symbol id="icon-facebook" viewBox="0 0 32 32">
<path d="M21.328 5.312h2.923v-5.088c-1.232-0.143-2.66-0.224-4.107-0.224-0.052 0-0.104 0-0.157 0l0.008-0c-4.213 0-7.099 2.65-7.099 7.52v4.48h-4.646v5.688h4.646v14.312h5.699v-14.31h4.459l0.709-5.688h-5.17v-3.922c0-1.643 0.443-2.768 2.734-2.768z"></path>
</symbol>
<symbol id="icon-instagram" viewBox="0 0 32 32">
<path d="M31.968 9.408c-0.074-1.701-0.349-2.869-0.742-3.882-0.424-1.111-1.054-2.059-1.85-2.837l-0.001-0.001c-0.78-0.792-1.724-1.419-2.778-1.827l-0.054-0.018c-1.019-0.394-2.181-0.667-3.882-0.742-1.712-0.082-2.256-0.101-6.602-0.101-4.344 0-4.888 0.019-6.595 0.094-1.699 0.074-2.869 0.349-3.88 0.742-1.112 0.424-2.060 1.054-2.839 1.85l-0.001 0.001c-0.791 0.78-1.418 1.724-1.825 2.778l-0.018 0.054c-0.395 1.019-0.669 2.181-0.744 3.882-0.082 1.712-0.101 2.256-0.101 6.602 0 4.344 0.019 4.888 0.094 6.595 0.075 1.701 0.35 2.869 0.744 3.882 0.426 1.11 1.055 2.057 1.849 2.837l0.001 0.001c0.8 0.813 1.77 1.443 2.832 1.843 1.019 0.395 2.182 0.67 3.882 0.744 1.707 0.075 2.251 0.094 6.595 0.094 4.346 0 4.89-0.019 6.595-0.094 1.701-0.074 2.869-0.349 3.882-0.742 2.157-0.85 3.833-2.526 4.664-4.628l0.019-0.055c0.394-1.019 0.669-2.182 0.744-3.882 0.075-1.707 0.093-2.251 0.093-6.595s-0.006-4.888-0.080-6.595zM29.088 22.474c-0.070 1.563-0.333 2.406-0.55 2.97-0.552 1.399-1.64 2.486-3.004 3.024l-0.036 0.012c-0.56 0.219-1.411 0.482-2.968 0.55-1.688 0.075-2.194 0.094-6.464 0.094-4.269 0-4.782-0.019-6.464-0.094-1.563-0.069-2.406-0.331-2.97-0.55-0.721-0.269-1.334-0.676-1.836-1.192l-0.001-0.001c-0.517-0.503-0.924-1.117-1.184-1.803l-0.011-0.034c-0.218-0.563-0.48-1.413-0.549-2.97-0.075-1.688-0.094-2.195-0.094-6.464 0-4.27 0.019-4.784 0.094-6.464 0.069-1.563 0.331-2.406 0.549-2.97 0.269-0.722 0.678-1.337 1.198-1.837l0.002-0.002c0.504-0.517 1.119-0.923 1.806-1.182l0.034-0.011c0.56-0.219 1.411-0.48 2.968-0.55 1.688-0.074 2.195-0.093 6.464-0.093 4.275 0 4.782 0.019 6.464 0.093 1.563 0.069 2.406 0.331 2.97 0.55 0.693 0.256 1.325 0.662 1.837 1.194 0.531 0.52 0.938 1.144 1.195 1.84 0.218 0.56 0.48 1.411 0.549 2.968 0.075 1.688 0.094 2.194 0.094 6.464 0 4.269-0.019 4.768-0.094 6.458z"></path>
<path d="M16.059 7.782c-4.539 0.002-8.218 3.682-8.219 8.221v0c0.091 4.471 3.737 8.060 8.221 8.060s8.13-3.589 8.221-8.052l0-0.009c-0.001-4.54-3.681-8.22-8.221-8.221h-0zM16.059 21.334c-2.945-0-5.332-2.388-5.332-5.333s2.388-5.333 5.333-5.333c0 0 0.001 0 0.001 0h-0c2.946 0 5.334 2.388 5.334 5.334s-2.388 5.334-5.334 5.334v0zM26.525 7.458c0 1.060-0.86 1.92-1.92 1.92s-1.92-0.86-1.92-1.92v0c0-1.060 0.86-1.92 1.92-1.92s1.92 0.86 1.92 1.92v0z"></path>
</symbol>
<symbol id="icon-twitter" viewBox="0 0 32 32">
<path d="M32 6.078c-1.1 0.493-2.376 0.857-3.713 1.028l-0.068 0.007c1.36-0.817 2.382-2.078 2.873-3.579l0.013-0.046c-1.197 0.722-2.591 1.273-4.076 1.573l-0.084 0.014c-1.2-1.279-2.9-2.076-4.787-2.076-3.622 0-6.558 2.936-6.558 6.558 0 0.001 0 0.003 0 0.004v-0c0 0.52 0.043 1.021 0.152 1.496-5.454-0.266-10.28-2.88-13.522-6.861-0.564 0.949-0.899 2.092-0.902 3.313v0.001c0 2.272 1.171 4.286 2.914 5.451-1.091-0.030-2.107-0.325-2.994-0.823l0.033 0.017v0.072c0.003 3.165 2.236 5.807 5.213 6.44l0.043 0.008c-0.499 0.136-1.071 0.215-1.662 0.215-0.020 0-0.041-0-0.061-0l0.003 0c-0.419 0-0.843-0.024-1.242-0.112 0.85 2.598 3.261 4.509 6.13 4.57-2.215 1.746-5.045 2.8-8.122 2.8-0.004 0-0.008 0-0.013 0h0.001c-0.018 0-0.040 0-0.062 0-0.531 0-1.055-0.034-1.569-0.099l0.061 0.006c2.826 1.846 6.287 2.944 10.004 2.944 0.021 0 0.042-0 0.063-0h-0.003c12.072 0 18.672-10 18.672-18.669 0-0.288-0.010-0.57-0.024-0.848 1.299-0.936 2.39-2.064 3.258-3.355l0.030-0.047z"></path>
</symbol>
</defs>
</svg>
